<?xml version="1.0" encoding="UTF-8" standalone="no"?>
<svg width="100%" height="100%" viewBox="0 0 3239 575" version="1.1" xmlns="http://www.w3.org/2000/svg" style="fill-rule:evenodd;clip-rule:evenodd;stroke-linejoin:round;stroke-miterlimit:2;">
<g><path d="M709.479,250.352l0,197.473l69.05,0l0,-343.046l-62.453,0l-106.433,186.916l-106.433,-186.916l-62.891,0l0,343.046l69.488,0l0,-197.031l77.846,134.14l43.54,0l78.286,-134.583Z" style="fill:#fff;fill-rule:nonzero;"/></g>
<g><path d="M851.804,216.043l0,231.777l66.408,0l0,-253.767l-66.408,21.99Z" style="fill:#deeef7;fill-rule:nonzero;"/></g>
<g><path d="M990.159,339.636l0,108.189l65.97,0l0,-108.189c0,-42.661 34.744,-76.965 76.965,-76.965l0,-65.97c-19.351,0 -37.823,3.518 -55.413,10.995c-17.152,7.477 -32.545,17.592 -45.3,30.786c-13.194,13.194 -23.749,28.587 -30.786,45.3c-7.477,17.592 -11.435,36.504 -11.435,55.856l-0.002,-0.001Z" style="fill:#bcddef;fill-rule:nonzero;"/></g>
<g><path d="M1405.885,200.212l-65.97,0l0,13.634c-17.152,-8.796 -36.504,-13.634 -56.294,-13.634c-17.152,0 -33.425,3.518 -48.818,10.115c-14.953,6.157 -28.587,15.393 -40.022,26.828c-11.435,11.435 -20.671,24.629 -26.828,39.582c-6.597,15.833 -9.676,32.106 -9.676,48.818c0,17.152 3.079,33.425 9.676,48.818c6.157,14.953 15.393,28.587 26.828,40.022c11.435,11.435 25.069,20.671 40.022,26.828c15.393,6.597 31.666,9.676 48.818,9.676c19.351,0 39.142,-4.398 56.294,-13.194l0,10.115l65.97,0l0,-247.609Zm-92.359,176.802c-9.236,5.278 -19.351,7.916 -29.907,7.916c-32.985,0 -59.373,-26.388 -59.373,-59.373c0,-32.545 26.388,-59.373 59.373,-59.373c11.435,0 22.43,3.518 32.106,9.676c9.236,6.157 16.713,14.513 21.55,24.629c3.518,7.916 5.278,16.273 5.278,25.509c0,10.115 -2.639,20.671 -7.916,29.467c-4.838,8.796 -12.314,16.273 -21.111,21.55Z" style="fill:#9bcce8;fill-rule:nonzero;"/></g>
<g><path d="M1666.661,235.844c-23.31,-23.31 -54.095,-36.064 -87.08,-36.064c-32.985,0 -63.771,12.754 -87.08,36.064c-23.31,23.31 -36.064,54.538 -36.064,87.08c0,32.985 12.754,64.209 36.064,87.523c23.31,23.31 54.095,36.064 87.08,36.064c19.351,0 38.263,-4.398 55.413,-13.194c-7.037,24.189 -29.027,41.781 -55.413,41.781c-14.953,0 -28.587,-5.278 -39.582,-15.393l-45.3,47.499c22.87,21.99 53.214,34.305 84.881,34.305c32.985,0 63.771,-13.194 87.08,-36.504c23.31,-22.87 36.064,-54.095 36.064,-87.08l0,-94.985c0,-32.545 -12.754,-63.771 -36.064,-87.08l0.001,-0.015Zm-87.08,144.697c-31.666,0 -57.174,-25.948 -57.174,-57.612c0,-31.226 25.509,-57.174 57.174,-57.174c31.666,0 57.612,25.509 57.612,57.174c-0.44,31.666 -25.948,57.612 -57.612,57.612Z" style="fill:#79bbe0;fill-rule:nonzero;"/></g>
<g><path d="M1872.92,449.179c17.592,0 34.305,-3.518 50.138,-10.115c14.953,-7.037 28.587,-16.273 40.022,-28.587l-46.179,-43.98c-11.435,12.314 -27.268,18.912 -43.98,18.912c-21.55,0 -40.022,-10.995 -51.015,-28.147l175.04,0l0,-31.666c0,-33.425 -12.754,-64.209 -36.504,-87.961c-23.31,-23.31 -54.538,-36.064 -87.523,-36.064c-32.985,0 -64.209,12.754 -87.523,36.064c-23.31,23.749 -36.504,54.538 -36.504,87.961c0,32.985 13.194,64.209 36.504,87.523c23.31,23.31 54.538,36.064 87.523,36.064l0.001,-0.002Zm51.015,-155.692l-102.035,0c10.995,-16.713 29.467,-28.147 51.015,-28.147c21.55,0 40.462,11.435 51.015,28.147l0.005,0Z" style="fill:#58aad8;fill-rule:nonzero;"/></g>
<g><path d="M2168.056,104.82l-117.428,0l0,343.046l129.304,0c37.823,0 67.732,-9.236 88.841,-27.708c20.231,-17.592 30.786,-42.661 30.786,-72.567c0,-25.069 -7.916,-47.059 -22.87,-64.209c-6.157,-7.037 -14.074,-13.194 -22.87,-18.472c6.157,-4.838 11.435,-10.995 15.833,-17.592c9.676,-14.953 14.513,-32.545 14.513,-51.015c0,-15.393 -3.079,-29.027 -8.796,-40.902c-5.717,-11.875 -14.074,-21.99 -25.509,-29.907c-19.351,-13.634 -47.059,-20.671 -81.801,-20.671l-0.004,-0.004Zm8.356,277.514l-56.737,0l0,-78.727l51.015,0c19.791,0 35.624,3.958 45.3,11.435c8.796,7.037 12.754,16.273 12.754,29.467c0,12.314 -3.958,21.55 -12.314,27.708c-8.796,6.597 -22.43,10.115 -40.022,10.115l0.004,0.002Zm-7.916,-142.936l-48.818,0l0,-69.05l44.42,-0.44c18.472,0 32.106,3.518 40.462,10.115c2.199,1.759 9.676,7.916 9.676,23.749c0,12.314 -3.958,21.55 -11.875,27.268c-7.916,5.278 -19.791,8.356 -33.865,8.356l0,0.001Z" style="fill:#369ad0;fill-rule:nonzero;"/></g>
<g><path d="M2360.776,115.357l0,332.489l66.408,0l0,-354.479l-66.408,21.99Z" style="fill:#2c93cc;fill-rule:nonzero;"/></g>
<g><path d="M2603.328,449.179c17.592,0 34.305,-3.518 50.138,-10.115c14.953,-7.037 28.587,-16.273 40.022,-28.587l-46.179,-43.98c-11.435,12.314 -27.268,18.912 -43.98,18.912c-21.55,0 -40.022,-10.995 -51.015,-28.147l175.04,0l0,-31.666c0,-33.425 -12.754,-64.209 -36.504,-87.961c-23.31,-23.31 -54.538,-36.064 -87.523,-36.064c-32.985,0 -64.209,12.754 -87.523,36.064c-23.31,23.749 -36.504,54.538 -36.504,87.961c0,32.985 13.194,64.209 36.504,87.523c23.31,23.31 54.538,36.064 87.523,36.064l0.001,-0.002Zm51.015,-155.692l-102.035,0c10.995,-16.713 29.467,-28.147 51.015,-28.147c21.55,0 40.462,11.435 51.015,28.147l0.005,0Z" style="fill:#3192cb;fill-rule:nonzero;"/></g>
<g><path d="M2880.496,450.502c29.027,0 56.737,-11.435 77.403,-32.106c21.111,-20.671 32.545,-48.378 32.545,-77.846l0,-137.657l-65.97,0l0,137.657c0,24.629 -19.791,43.98 -43.98,43.98c-24.629,0 -43.98,-19.351 -43.98,-43.98l0,-137.657l-65.97,0l0,137.657c0,29.467 11.435,57.174 32.106,77.846c20.671,20.671 48.378,32.106 77.846,32.106l0.001,0Z" style="fill:#3691c9;fill-rule:nonzero;"/></g>
</svg>
